<svg width="70" height="70" viewBox="0 0 70 70" fill="none" xmlns="http://www.w3.org/2000/svg">
<circle cx="35" cy="35" r="35" fill="white"/>
<path d="M45.2172 36.2432L45.2176 36.2429C47.8027 33.6433 47.7941 29.4452 45.1919 26.8431C42.5859 24.237 38.3741 24.2235 35.778 26.8197L35.7779 26.8198L34.9894 27.6098L34.1887 26.8091C31.5872 24.2076 27.3774 24.1942 24.7858 26.7858C22.1942 29.3774 22.2076 33.5872 24.8091 36.1887L34.2245 45.6041C34.6736 46.0532 35.4017 46.0532 35.8508 45.6041C35.8508 45.6041 35.8508 45.6041 35.8509 45.6041L45.2172 36.2432ZM43.5866 34.621L35.0377 43.1645L26.4355 34.5623C24.7291 32.8559 24.7219 30.1024 26.4122 28.4122C28.1024 26.7219 30.8559 26.7291 32.5623 28.4355L34.1811 30.0543C34.6375 30.5107 35.38 30.5021 35.8257 30.0356L37.4044 28.4461C37.4044 28.446 37.4045 28.4459 37.4046 28.4459C39.0993 26.7513 41.8546 26.7586 43.5655 28.4695C45.2721 30.176 45.2769 32.9213 43.5866 34.621Z" fill="#27CA37" stroke="#27CA37" stroke-width="0.3"/>
</svg>
