<svg width="35" height="35" viewBox="0 0 35 35" fill="none" xmlns="http://www.w3.org/2000/svg">
<circle cx="17.5" cy="17.5" r="17.5" fill="url(#paint0_linear_1_312)"/>
<path d="M25.3243 14.2737C25.3155 13.6124 25.1914 12.9576 24.9578 12.3388C24.7552 11.8168 24.4458 11.3427 24.0492 10.9468C23.6527 10.551 23.1778 10.242 22.655 10.0397C22.043 9.81042 21.3965 9.68642 20.7431 9.67302C19.9017 9.63548 19.6349 9.625 17.4991 9.625C15.3633 9.625 15.0896 9.625 14.2543 9.67302C13.6011 9.68652 12.9549 9.81052 12.3433 10.0397C11.8203 10.2419 11.3454 10.5508 10.9488 10.9466C10.5523 11.3425 10.2429 11.8167 10.0404 12.3388C9.81027 12.9492 9.68633 13.5945 9.67398 14.2466C9.63637 15.0875 9.625 15.3538 9.625 17.486C9.625 19.6183 9.625 19.8907 9.67398 20.7254C9.6871 21.3786 9.81042 22.023 10.0404 22.635C10.2432 23.157 10.5529 23.6309 10.9495 24.0267C11.3462 24.4224 11.8212 24.7311 12.3442 24.9332C12.9541 25.1717 13.6004 25.3046 14.2552 25.3261C15.0974 25.3636 15.3642 25.375 17.5 25.375C19.6358 25.375 19.9096 25.375 20.7448 25.3261C21.3983 25.3133 22.0448 25.1895 22.6567 24.9603C23.1795 24.7578 23.6542 24.4487 24.0507 24.0529C24.4472 23.6571 24.7567 23.1831 24.9596 22.6612C25.1896 22.05 25.3129 21.4056 25.326 20.7516C25.3636 19.9117 25.375 19.6453 25.375 17.5122C25.3733 15.38 25.3733 15.1093 25.3243 14.2737ZM17.4939 21.5183C15.2601 21.5183 13.4505 19.7117 13.4505 17.4817C13.4505 15.2516 15.2601 13.4451 17.4939 13.4451C18.5662 13.4451 19.5947 13.8703 20.3529 14.6274C21.1112 15.3844 21.5372 16.4111 21.5372 17.4817C21.5372 18.5522 21.1112 19.579 20.3529 20.336C19.5947 21.093 18.5662 21.5183 17.4939 21.5183ZM21.6981 14.237C21.176 14.237 20.7553 13.8162 20.7553 13.2958C20.7553 13.1722 20.7797 13.0499 20.827 12.9357C20.8744 12.8216 20.9438 12.7179 21.0313 12.6305C21.1188 12.5431 21.2227 12.4738 21.3371 12.4265C21.4514 12.3793 21.5739 12.3549 21.6977 12.3549C21.8215 12.3549 21.944 12.3793 22.0583 12.4265C22.1727 12.4738 22.2766 12.5431 22.3641 12.6305C22.4516 12.7179 22.521 12.8216 22.5684 12.9357C22.6157 13.0499 22.6401 13.1722 22.6401 13.2958C22.6401 13.8162 22.2185 14.237 21.6981 14.237Z" fill="white"/>
<path d="M17.4939 20.1038C18.9444 20.1038 20.1203 18.9298 20.1203 17.4817C20.1203 16.0335 18.9444 14.8596 17.4939 14.8596C16.0433 14.8596 14.8674 16.0335 14.8674 17.4817C14.8674 18.9298 16.0433 20.1038 17.4939 20.1038Z" fill="white"/>
<defs>
<linearGradient id="paint0_linear_1_312" x1="17.5" y1="0" x2="17.5" y2="35" gradientUnits="userSpaceOnUse">
<stop stop-color="#FF005B"/>
<stop offset="1" stop-color="#D30067"/>
</linearGradient>
</defs>
</svg>
