<svg width="75" height="50" viewBox="0 0 75 50" fill="none" xmlns="http://www.w3.org/2000/svg">
<g clip-path="url(#clip0_91_2)">
<path d="M19.0375 41.4045C19.0375 42.9651 18.6477 44.3513 17.8679 45.5632C17.0882 46.7751 15.9849 47.7256 14.5581 48.4145C13.1313 49.0952 11.4557 49.4355 9.53121 49.4355C7.59842 49.4355 5.91864 49.091 4.49186 48.4021C3.05679 47.7131 1.94938 46.7668 1.16963 45.5632C0.389875 44.3513 6.8168e-08 42.9651 0 41.4045C-6.8168e-08 39.844 0.389875 38.4619 1.16963 37.2583C1.94938 36.0547 3.05679 35.1125 4.49186 34.4319C5.91864 33.7429 7.59842 33.3984 9.53121 33.3984C11.4557 33.3984 13.1313 33.7429 14.5581 34.4319C15.9849 35.1125 17.0882 36.0547 17.8679 37.2583C18.6477 38.4619 19.0375 39.844 19.0375 41.4045ZM17.4573 41.4045C17.4573 40.1926 17.1421 39.1052 16.5116 38.1423C15.8812 37.1794 14.977 36.4199 13.7991 35.8637C12.6129 35.3076 11.1903 35.0295 9.53121 35.0295C7.86387 35.0295 6.43709 35.3076 5.25087 35.8637C4.06466 36.4199 3.15633 37.1794 2.52589 38.1423C1.89546 39.1052 1.58024 40.1926 1.58024 41.4045C1.58024 42.6164 1.89546 43.708 2.52589 44.6792C3.15633 45.6421 4.06466 46.4057 5.25087 46.9702C6.43709 47.5263 7.86387 47.8044 9.53121 47.8044C11.182 47.8044 12.6004 47.5263 13.7867 46.9702C14.9729 46.414 15.8812 45.6545 16.5116 44.6916C17.1421 43.7204 17.4573 42.6247 17.4573 41.4045Z" fill="#003399"/>
<path d="M0.248047 15.6431H18.7879V17.3116L3.27165 28.2562V28.418H18.7879V30.1114H0.248048V28.4679L15.7891 17.461V17.3241H0.248048L0.248047 15.6431Z" fill="#003399"/>
<path d="M18.7879 11.5091H0.248047V0.73877H1.77851V9.81568H8.69673V1.31153H10.2148V9.81568H17.2698V0.564453H18.7879V11.5091Z" fill="#003399"/>
<path d="M49.8534 16.9937C46.4264 16.9937 43.6484 19.7736 43.6484 23.2028V50.0002H50.0167C52.0999 50.0002 54.1238 49.745 56.0584 49.2642V23.2028C56.0584 19.7736 53.2803 16.9937 49.8534 16.9937Z" fill="#003399"/>
<path d="M75.0003 25C75.0003 34.3544 69.8663 42.5088 62.2637 46.7954V3.20459C69.8663 7.49123 75.0003 15.6456 75.0003 25Z" fill="#003399"/>
<path d="M37.4432 0H25.0332V50H37.4432V0Z" fill="#003399"/>
<path d="M56.3849 6.37255C56.3849 9.89201 53.5338 12.7451 50.0167 12.7451C46.4996 12.7451 43.6484 9.89201 43.6484 6.37255C43.6484 2.85309 46.4996 0 50.0167 0C53.5338 0 56.3849 2.85309 56.3849 6.37255Z" fill="#003399"/>
</g>
<defs>
<clipPath id="clip0_91_2">
<rect width="75" height="50" fill="white"/>
</clipPath>
</defs>
</svg>
