<svg width="60" height="60" viewBox="0 0 60 60" fill="none" xmlns="http://www.w3.org/2000/svg">
<g clip-path="url(#clip0_3202_214)">
<path d="M30 60C46.5685 60 60 46.5685 60 30C60 13.4315 46.5685 0 30 0C13.4315 0 0 13.4315 0 30C0 46.5685 13.4315 60 30 60Z" fill="#024A57"/>
<path fill-rule="evenodd" clip-rule="evenodd" d="M40.5866 37.9275C39.8767 40.085 37.0952 41.1609 35.108 40.9815C32.394 40.7362 29.4407 39.2967 27.199 37.7112C23.9038 35.3805 20.8172 31.7753 19.0186 27.9496C17.7475 25.2463 17.4622 21.9226 19.3529 19.4585C20.0521 18.5477 20.8095 18.0613 21.9442 18.0045C23.5205 17.9279 23.7413 18.8296 24.2826 20.2342C24.6858 21.2845 25.224 22.3559 25.5246 23.4446C26.0873 25.4763 24.12 25.5612 23.8716 27.2218C23.7183 28.2691 24.9864 29.6736 25.5598 30.4203C26.6652 31.8746 28.019 33.1218 29.5588 34.1047C30.4328 34.6551 31.8404 35.6471 32.8402 35.0997C34.3797 34.2564 34.2355 31.6605 36.3868 32.5391C37.5015 32.993 38.581 33.648 39.6452 34.2215C41.2904 35.1062 41.2138 36.0231 40.5866 37.9275C41.0558 36.5046 40.1174 39.3505 40.5866 37.9275Z" fill="white"/>
</g>
<defs>
<clipPath id="clip0_3202_214">
<rect width="60" height="60" fill="white"/>
</clipPath>
</defs>
</svg>
