<svg width="30" height="30" viewBox="0 0 30 30" fill="none" xmlns="http://www.w3.org/2000/svg">
<path fill-rule="evenodd" clip-rule="evenodd" d="M13.5702 16.43C12.1077 14.9675 11.0052 13.33 10.2727 11.6688C10.1177 11.3175 10.2089 10.9063 10.4802 10.635L11.5039 9.61252C12.3427 8.77377 12.3427 7.58752 11.6102 6.85502L10.1427 5.38752C9.16643 4.41127 7.58393 4.41127 6.60768 5.38752L5.79268 6.20252C4.86643 7.12877 4.48018 8.46502 4.73018 9.79002C5.34768 13.0563 7.24518 16.6325 10.3064 19.6938C13.3677 22.755 16.9439 24.6525 20.2102 25.27C21.5352 25.52 22.8714 25.1338 23.7977 24.2075L24.6114 23.3938C25.5877 22.4175 25.5877 20.835 24.6114 19.8588L23.1452 18.3925C22.4127 17.66 21.2252 17.66 20.4939 18.3925L19.3652 19.5225C19.0939 19.7938 18.6827 19.885 18.3314 19.73C16.6702 18.9963 15.0327 17.8925 13.5702 16.43Z" stroke="#27CA37" stroke-width="1.5" stroke-linecap="round" stroke-linejoin="round"/>
</svg>
