<svg width="35" height="35" viewBox="0 0 35 35" fill="none" xmlns="http://www.w3.org/2000/svg">
<g clip-path="url(#clip0_1_231)">
<path d="M0 23.3334H46.6667V35H0V23.3334Z" fill="#27CA37"/>
<path d="M0 0H46.6667V11.6667H0V0Z" fill="#0099B5"/>
<path d="M0 11.1998H46.6667V23.7998H0V11.1998Z" fill="#CE1126"/>
<path d="M0 11.9H46.6667V23.1H0V11.9Z" fill="white"/>
<path d="M9.79961 9.80003C12.1192 9.80003 13.9996 7.91962 13.9996 5.60003C13.9996 3.28043 12.1192 1.40002 9.79961 1.40002C7.48001 1.40002 5.59961 3.28043 5.59961 5.60003C5.59961 7.91962 7.48001 9.80003 9.79961 9.80003Z" fill="white"/>
<path d="M11.2 9.80003C13.5196 9.80003 15.4 7.91962 15.4 5.60003C15.4 3.28043 13.5196 1.40002 11.2 1.40002C8.88041 1.40002 7 3.28043 7 5.60003C7 7.91962 8.88041 9.80003 11.2 9.80003Z" fill="#0099B5"/>
<path d="M19.0385 8.1217L18.7725 8.9197L19.1785 9.0597" fill="white"/>
</g>
<rect x="0.5" y="0.5" width="34" height="34" rx="17" stroke="#EDEDED"/>
<defs>
<clipPath id="clip0_1_231">
<rect width="35" height="35" rx="17.5" fill="white"/>
</clipPath>
</defs>
</svg>
