<svg width="500" height="500" viewBox="0 0 500 500" fill="none" xmlns="http://www.w3.org/2000/svg">
<rect width="500" height="500" fill="white"/>
<path d="M91.0455 274V227.455H100.886V247.977H101.5L118.25 227.455H130.045L112.773 248.295L130.25 274H118.477L105.727 254.864L100.886 260.773V274H91.0455ZM143.58 227.455L154.83 262.818H155.261L166.534 227.455H177.443L161.398 274H148.716L132.648 227.455H143.58ZM184.881 274H174.335L190.403 227.455H203.085L219.131 274H208.585L196.926 238.091H196.562L184.881 274ZM184.222 255.705H209.131V263.386H184.222V255.705ZM224.733 274V227.455H243.097C246.612 227.455 249.612 228.083 252.097 229.341C254.597 230.583 256.498 232.348 257.801 234.636C259.119 236.909 259.778 239.583 259.778 242.659C259.778 245.75 259.112 248.409 257.778 250.636C256.445 252.848 254.513 254.545 251.983 255.727C249.468 256.909 246.422 257.5 242.847 257.5H230.551V249.591H241.256C243.134 249.591 244.695 249.333 245.938 248.818C247.18 248.303 248.104 247.53 248.71 246.5C249.331 245.47 249.642 244.189 249.642 242.659C249.642 241.114 249.331 239.811 248.71 238.75C248.104 237.689 247.172 236.886 245.915 236.341C244.672 235.78 243.104 235.5 241.21 235.5H234.574V274H224.733ZM249.869 252.818L261.438 274H250.574L239.256 252.818H249.869ZM264.96 235.568V227.455H303.188V235.568H288.938V274H279.21V235.568H264.96ZM319.324 227.455V274H309.483V227.455H319.324ZM327.42 274V227.455H345.784C349.299 227.455 352.299 228.083 354.784 229.341C357.284 230.583 359.186 232.348 360.489 234.636C361.807 236.909 362.466 239.583 362.466 242.659C362.466 245.75 361.799 248.409 360.466 250.636C359.133 252.848 357.201 254.545 354.67 255.727C352.155 256.909 349.11 257.5 345.534 257.5H333.239V249.591H343.943C345.822 249.591 347.383 249.333 348.625 248.818C349.867 248.303 350.792 247.53 351.398 246.5C352.019 245.47 352.33 244.189 352.33 242.659C352.33 241.114 352.019 239.811 351.398 238.75C350.792 237.689 349.86 236.886 348.602 236.341C347.36 235.78 345.792 235.5 343.898 235.5H337.261V274H327.42ZM352.557 252.818L364.125 274H353.261L341.943 252.818H352.557ZM377.443 274H366.898L382.966 227.455H395.648L411.693 274H401.148L389.489 238.091H389.125L377.443 274ZM376.784 255.705H401.693V263.386H376.784V255.705Z" fill="#248597"/>
</svg>
