<svg width="500" height="500" viewBox="0 0 500 500" fill="none" xmlns="http://www.w3.org/2000/svg">
<rect width="500" height="500" fill="white"/>
<path d="M138.045 274V227.455H156.682C160.106 227.455 162.962 227.962 165.25 228.977C167.538 229.992 169.258 231.402 170.409 233.205C171.561 234.992 172.136 237.053 172.136 239.386C172.136 241.205 171.773 242.803 171.045 244.182C170.318 245.545 169.318 246.667 168.045 247.545C166.788 248.409 165.348 249.023 163.727 249.386V249.841C165.5 249.917 167.159 250.417 168.705 251.341C170.265 252.265 171.53 253.561 172.5 255.227C173.47 256.879 173.955 258.848 173.955 261.136C173.955 263.606 173.341 265.811 172.114 267.75C170.902 269.674 169.106 271.197 166.727 272.318C164.348 273.439 161.417 274 157.932 274H138.045ZM147.886 265.955H155.909C158.652 265.955 160.652 265.432 161.909 264.386C163.167 263.326 163.795 261.917 163.795 260.159C163.795 258.871 163.485 257.735 162.864 256.75C162.242 255.765 161.356 254.992 160.205 254.432C159.068 253.871 157.712 253.591 156.136 253.591H147.886V265.955ZM147.886 246.932H155.182C156.53 246.932 157.727 246.697 158.773 246.227C159.833 245.742 160.667 245.061 161.273 244.182C161.894 243.303 162.205 242.25 162.205 241.023C162.205 239.341 161.606 237.985 160.409 236.955C159.227 235.924 157.545 235.409 155.364 235.409H147.886V246.932ZM190.199 227.455V274H180.358V227.455H190.199ZM197.795 274V268.159L221.023 235.568H197.75V227.455H233.386V233.295L210.136 265.886H233.432V274H197.795ZM279.915 227.455V274H271.415L251.165 244.705H250.824V274H240.983V227.455H249.619L269.71 256.727H270.119V227.455H279.915ZM288.045 274V227.455H319.409V235.568H297.886V246.659H317.795V254.773H297.886V265.886H319.5V274H288.045ZM352.483 240.841C352.301 239.008 351.521 237.583 350.142 236.568C348.763 235.553 346.892 235.045 344.528 235.045C342.922 235.045 341.566 235.273 340.46 235.727C339.354 236.167 338.506 236.78 337.915 237.568C337.339 238.356 337.051 239.25 337.051 240.25C337.021 241.083 337.195 241.811 337.574 242.432C337.968 243.053 338.506 243.591 339.188 244.045C339.869 244.485 340.657 244.871 341.551 245.205C342.445 245.523 343.4 245.795 344.415 246.023L348.597 247.023C350.627 247.477 352.491 248.083 354.188 248.841C355.884 249.598 357.354 250.53 358.597 251.636C359.839 252.742 360.801 254.045 361.483 255.545C362.18 257.045 362.536 258.765 362.551 260.705C362.536 263.553 361.809 266.023 360.369 268.114C358.945 270.189 356.884 271.803 354.188 272.955C351.506 274.091 348.271 274.659 344.483 274.659C340.725 274.659 337.453 274.083 334.665 272.932C331.892 271.78 329.725 270.076 328.165 267.818C326.619 265.545 325.809 262.735 325.733 259.386H335.256C335.362 260.947 335.809 262.25 336.597 263.295C337.4 264.326 338.468 265.106 339.801 265.636C341.15 266.152 342.672 266.409 344.369 266.409C346.036 266.409 347.483 266.167 348.71 265.682C349.953 265.197 350.915 264.523 351.597 263.659C352.278 262.795 352.619 261.803 352.619 260.682C352.619 259.636 352.309 258.758 351.688 258.045C351.081 257.333 350.188 256.727 349.006 256.227C347.839 255.727 346.407 255.273 344.71 254.864L339.642 253.591C335.718 252.636 332.619 251.144 330.347 249.114C328.074 247.083 326.945 244.348 326.96 240.909C326.945 238.091 327.695 235.629 329.21 233.523C330.741 231.417 332.839 229.773 335.506 228.591C338.172 227.409 341.203 226.818 344.597 226.818C348.051 226.818 351.066 227.409 353.642 228.591C356.233 229.773 358.248 231.417 359.688 233.523C361.127 235.629 361.869 238.068 361.915 240.841H352.483Z" fill="#248597"/>
</svg>
