<svg width="500" height="500" viewBox="0 0 500 500" fill="none" xmlns="http://www.w3.org/2000/svg">
<rect width="500" height="500" fill="white"/>
<path d="M235.795 227.455H245.636V257.682C245.636 261.076 244.826 264.045 243.205 266.591C241.598 269.136 239.348 271.121 236.455 272.545C233.561 273.955 230.189 274.659 226.341 274.659C222.477 274.659 219.098 273.955 216.205 272.545C213.311 271.121 211.061 269.136 209.455 266.591C207.848 264.045 207.045 261.076 207.045 257.682V227.455H216.886V256.841C216.886 258.614 217.273 260.189 218.045 261.568C218.833 262.947 219.939 264.03 221.364 264.818C222.788 265.606 224.447 266 226.341 266C228.25 266 229.909 265.606 231.318 264.818C232.742 264.03 233.841 262.947 234.614 261.568C235.402 260.189 235.795 258.614 235.795 256.841V227.455ZM251.006 227.455H262.028L272.642 247.5H273.097L283.71 227.455H294.733L277.756 257.545V274H267.983V257.545L251.006 227.455Z" fill="#248597"/>
</svg>
