<svg width="500" height="500" viewBox="0 0 500 500" fill="none" xmlns="http://www.w3.org/2000/svg">
<rect width="500" height="500" fill="white"/>
<path d="M169.273 227.455L178.659 243.318H179.023L188.455 227.455H199.568L185.364 250.727L199.886 274H188.568L179.023 258.114H178.659L169.114 274H157.841L172.409 250.727L158.114 227.455H169.273ZM246.381 250.727C246.381 255.803 245.419 260.121 243.494 263.682C241.585 267.242 238.979 269.962 235.676 271.841C232.388 273.705 228.691 274.636 224.585 274.636C220.449 274.636 216.737 273.697 213.449 271.818C210.161 269.939 207.563 267.22 205.653 263.659C203.744 260.098 202.79 255.788 202.79 250.727C202.79 245.652 203.744 241.333 205.653 237.773C207.563 234.212 210.161 231.5 213.449 229.636C216.737 227.758 220.449 226.818 224.585 226.818C228.691 226.818 232.388 227.758 235.676 229.636C238.979 231.5 241.585 234.212 243.494 237.773C245.419 241.333 246.381 245.652 246.381 250.727ZM236.403 250.727C236.403 247.439 235.911 244.667 234.926 242.409C233.956 240.152 232.585 238.439 230.812 237.273C229.04 236.106 226.964 235.523 224.585 235.523C222.206 235.523 220.131 236.106 218.358 237.273C216.585 238.439 215.206 240.152 214.222 242.409C213.252 244.667 212.767 247.439 212.767 250.727C212.767 254.015 213.252 256.788 214.222 259.045C215.206 261.303 216.585 263.015 218.358 264.182C220.131 265.348 222.206 265.932 224.585 265.932C226.964 265.932 229.04 265.348 230.812 264.182C232.585 263.015 233.956 261.303 234.926 259.045C235.911 256.788 236.403 254.015 236.403 250.727ZM292.602 227.455V274H284.102L263.852 244.705H263.511V274H253.67V227.455H262.307L282.398 256.727H282.807V227.455H292.602ZM308.756 274H298.21L314.278 227.455H326.96L343.006 274H332.46L320.801 238.091H320.438L308.756 274ZM308.097 255.705H333.006V263.386H308.097V255.705Z" fill="#248597"/>
</svg>
