<svg width="500" height="500" viewBox="0 0 500 500" fill="none" xmlns="http://www.w3.org/2000/svg">
<rect width="500" height="500" fill="white"/>
<path d="M187.537 188.455H198.56L209.173 208.5H209.628L220.241 188.455H231.264L214.287 218.545V235H204.514V218.545L187.537 188.455ZM236.639 235V188.455H268.003V196.568H246.48V207.659H266.389V215.773H246.48V226.886H268.094V235H236.639ZM275.827 235V188.455H294.19C297.705 188.455 300.705 189.083 303.19 190.341C305.69 191.583 307.592 193.348 308.895 195.636C310.213 197.909 310.872 200.583 310.872 203.659C310.872 206.75 310.205 209.409 308.872 211.636C307.539 213.848 305.607 215.545 303.077 216.727C300.562 217.909 297.516 218.5 293.94 218.5H281.645V210.591H292.349C294.228 210.591 295.789 210.333 297.031 209.818C298.274 209.303 299.198 208.53 299.804 207.5C300.425 206.47 300.736 205.189 300.736 203.659C300.736 202.114 300.425 200.811 299.804 199.75C299.198 198.689 298.266 197.886 297.009 197.341C295.766 196.78 294.198 196.5 292.304 196.5H285.668V235H275.827ZM300.963 213.818L312.531 235H301.668L290.349 213.818H300.963ZM99.2017 265.455H111.338L124.156 296.727H124.702L137.52 265.455H149.656V312H140.111V281.705H139.724L127.679 311.773H121.179L109.134 281.591H108.747V312H99.2017V265.455ZM165.787 312H155.241L171.31 265.455H183.991L200.037 312H189.491L177.832 276.091H177.469L165.787 312ZM165.128 293.705H190.037V301.386H165.128V293.705ZM198.162 265.455H209.185L219.798 285.5H220.253L230.866 265.455H241.889L224.912 295.545V312H215.139V295.545L198.162 265.455ZM263.764 312H247.264V265.455H263.901C268.582 265.455 272.613 266.386 275.991 268.25C279.37 270.098 281.969 272.758 283.787 276.227C285.62 279.697 286.537 283.848 286.537 288.682C286.537 293.53 285.62 297.697 283.787 301.182C281.969 304.667 279.355 307.341 275.946 309.205C272.552 311.068 268.491 312 263.764 312ZM257.105 303.568H263.355C266.264 303.568 268.711 303.053 270.696 302.023C272.696 300.977 274.196 299.364 275.196 297.182C276.211 294.985 276.719 292.152 276.719 288.682C276.719 285.242 276.211 282.432 275.196 280.25C274.196 278.068 272.704 276.462 270.719 275.432C268.734 274.402 266.287 273.886 263.378 273.886H257.105V303.568ZM336.599 288.727C336.599 293.803 335.637 298.121 333.713 301.682C331.804 305.242 329.198 307.962 325.895 309.841C322.607 311.705 318.91 312.636 314.804 312.636C310.668 312.636 306.955 311.697 303.668 309.818C300.38 307.939 297.781 305.22 295.872 301.659C293.963 298.098 293.009 293.788 293.009 288.727C293.009 283.652 293.963 279.333 295.872 275.773C297.781 272.212 300.38 269.5 303.668 267.636C306.955 265.758 310.668 264.818 314.804 264.818C318.91 264.818 322.607 265.758 325.895 267.636C329.198 269.5 331.804 272.212 333.713 275.773C335.637 279.333 336.599 283.652 336.599 288.727ZM326.622 288.727C326.622 285.439 326.13 282.667 325.145 280.409C324.175 278.152 322.804 276.439 321.031 275.273C319.259 274.106 317.183 273.523 314.804 273.523C312.425 273.523 310.349 274.106 308.577 275.273C306.804 276.439 305.425 278.152 304.44 280.409C303.471 282.667 302.986 285.439 302.986 288.727C302.986 292.015 303.471 294.788 304.44 297.045C305.425 299.303 306.804 301.015 308.577 302.182C310.349 303.348 312.425 303.932 314.804 303.932C317.183 303.932 319.259 303.348 321.031 302.182C322.804 301.015 324.175 299.303 325.145 297.045C326.13 294.788 326.622 292.015 326.622 288.727ZM382.821 265.455V312H374.321L354.071 282.705H353.73V312H343.889V265.455H352.526L372.616 294.727H373.026V265.455H382.821ZM400.793 265.455V312H390.952V265.455H400.793Z" fill="#248597"/>
</svg>
